<svg width="406" height="306" viewBox="0 0 406 306" fill="none" xmlns="http://www.w3.org/2000/svg">
<path d="M315.178 53.3879H204.665V214.692H315.178V53.3879Z" fill="#E6E6E6"/>
<path d="M133.27 134.243C134.069 132.378 134.3 130.318 133.935 128.322C133.569 126.326 132.623 124.482 131.214 123.021C129.805 121.561 127.997 120.548 126.016 120.11C124.034 119.673 121.967 119.829 120.075 120.561C111.396 123.991 102.17 130.294 97.1153 141.876C85.7473 167.849 91.888 181.461 103.205 184.272C114.523 187.084 129.149 143.865 129.149 143.865L133.27 134.243Z" fill="#5B97AA"/>
<path opacity="0.2" d="M133.27 134.243C134.069 132.378 134.3 130.318 133.935 128.322C133.569 126.326 132.623 124.482 131.214 123.021C129.805 121.561 127.997 120.548 126.016 120.11C124.034 119.673 121.967 119.829 120.075 120.561C111.396 123.991 102.17 130.294 97.1153 141.876C85.7473 167.849 91.888 181.461 103.205 184.272C114.523 187.084 129.149 143.865 129.149 143.865L133.27 134.243Z" fill="white"/>
<path opacity="0.45" d="M198.859 279.916C279.967 279.916 345.719 273.24 345.719 265.005C345.719 256.771 279.967 250.095 198.859 250.095C117.75 250.095 51.9984 256.771 51.9984 265.005C51.9984 273.24 117.75 279.916 198.859 279.916Z" fill="#E6E6E6"/>
<path opacity="0.58" d="M89.9087 255.038C89.9087 255.038 81.4943 252.774 79.6267 244.949C79.6267 244.949 92.6492 242.269 93.0755 255.718L89.9087 255.038Z" fill="#5B97AA"/>
<path opacity="0.73" d="M90.9338 254.195C90.9338 254.195 85.0265 244.929 90.1624 236.23C90.1624 236.23 100.089 242.472 95.7348 254.195H90.9338Z" fill="#5B97AA"/>
<path d="M92.4563 254.195C92.4563 254.195 95.5013 244.37 104.89 242.472C104.89 242.472 106.676 248.836 98.861 254.195H92.4563Z" fill="#5B97AA"/>
<path d="M86.3562 254.003L88.102 265.655H98.8407L100.373 254.003H86.3562Z" fill="#24285B"/>
<path d="M133.432 260.275C133.432 260.275 131.95 264.386 128.235 264.701C124.52 265.015 123.546 268.649 126.885 269.593C130.225 270.537 138.842 266.244 138.842 266.244L138.598 260.884L133.432 260.275Z" fill="#5B97AA"/>
<path d="M163.933 260.275C163.933 260.275 165.415 264.386 169.129 264.701C172.844 265.015 173.819 268.649 170.479 269.593C167.14 270.537 158.523 266.244 158.523 266.244L158.766 260.884L163.933 260.275Z" fill="#5B97AA"/>
<path d="M124.845 96.4746C157.33 96.4746 183.664 93.3845 183.664 89.5726C183.664 85.7608 157.33 82.6706 124.845 82.6706C92.36 82.6706 66.0258 85.7608 66.0258 89.5726C66.0258 93.3845 92.36 96.4746 124.845 96.4746Z" fill="#FFD200"/>
<path opacity="0.08" d="M124.845 96.4746C157.33 96.4746 183.664 93.3845 183.664 89.5726C183.664 85.7608 157.33 82.6706 124.845 82.6706C92.36 82.6706 66.0258 85.7608 66.0258 89.5726C66.0258 93.3845 92.36 96.4746 124.845 96.4746Z" fill="black"/>
<path d="M146.617 94.7898C146.617 94.7898 149.063 99.9663 149.469 103.854C149.51 104.23 149.475 104.612 149.368 104.975C149.261 105.339 149.083 105.677 148.844 105.972C148.605 106.266 148.311 106.51 147.977 106.69C147.644 106.87 147.278 106.983 146.901 107.02C145.694 107.218 144.457 107.062 143.337 106.572C142.217 106.082 141.262 105.279 140.588 104.26L137.248 100.2C136.666 99.3104 136.375 98.2623 136.415 97.2003C136.455 96.1384 136.824 95.1151 137.472 94.2721C139.684 90.9327 145.287 91.5621 146.617 94.7898Z" fill="#F4A28C"/>
<path d="M138.507 101.103L137.157 119.81L147.52 119.82L144.424 106.543L138.507 101.103Z" fill="#F4A28C"/>
<path d="M145.368 95.5104C143.738 96.1862 142.035 96.6699 140.293 96.9517C141.041 97.5053 141.61 98.2653 141.931 99.1381C142.252 100.011 142.31 100.958 142.1 101.864C141.908 102.739 141.419 103.521 140.716 104.076C140.012 104.631 139.139 104.925 138.243 104.909L135.777 97.9769C135.399 96.9936 135.294 95.9266 135.472 94.8886C135.651 93.8506 136.107 92.8801 136.792 92.0797C137.377 91.3632 138.007 90.6851 138.679 90.0497C140.375 88.5272 143.754 88.7708 145.054 86.7713C145.184 86.5719 145.364 86.4097 145.576 86.3004C145.787 86.1912 146.024 86.1386 146.262 86.1478C146.5 86.157 146.732 86.2276 146.934 86.3529C147.137 86.4782 147.304 86.6538 147.419 86.8626C148.505 88.8418 149.357 92.2827 146.942 94.4853C146.476 94.9102 145.945 95.2565 145.368 95.5104V95.5104Z" fill="#24285B"/>
<path d="M142.607 101.499C142.607 101.499 141.806 99.4689 140.314 100.179C138.822 100.89 139.958 103.884 142.171 103.377L142.607 101.499Z" fill="#F4A28C"/>
<path d="M147.987 98.1291L150.22 99.6415C150.359 99.7229 150.474 99.8393 150.554 99.9791C150.634 100.119 150.677 100.277 150.677 100.438C150.677 100.599 150.634 100.758 150.554 100.897C150.474 101.037 150.359 101.154 150.22 101.235L148.312 102.382L147.987 98.1291Z" fill="#F4A28C"/>
<path opacity="0.31" d="M144.506 106.919C143.258 106.694 142.093 106.137 141.136 105.305C141.136 105.305 140.466 109.365 145.399 110.725L144.506 106.919Z" fill="#CE8172"/>
<path opacity="0.08" d="M150.22 99.6414L147.967 98.1291C147.266 96.2107 146.596 94.7796 146.596 94.7796L146.871 94.5867C149.286 92.3842 148.434 88.9433 147.348 86.9641C147.233 86.7553 147.066 86.5797 146.863 86.4544C146.661 86.3291 146.429 86.2585 146.191 86.2493C145.953 86.2401 145.716 86.2927 145.505 86.4019C145.293 86.5112 145.113 86.6734 144.983 86.8727C143.694 88.9027 140.303 88.6287 138.608 90.1512C137.936 90.7866 137.306 91.4647 136.721 92.1812C136.044 92.9866 135.598 93.9594 135.428 94.9973C135.258 96.0351 135.372 97.0995 135.756 98.0783L138.223 105.011L137.147 119.87H147.51L144.942 108.858L144.495 106.97C145.286 107.113 146.091 107.147 146.891 107.071C147.267 107.032 147.633 106.919 147.965 106.738C148.298 106.558 148.592 106.314 148.831 106.02C149.069 105.726 149.247 105.388 149.355 105.025C149.463 104.662 149.498 104.281 149.459 103.904C149.386 103.221 149.268 102.542 149.104 101.874L150.2 101.225C150.337 101.145 150.452 101.03 150.532 100.892C150.613 100.754 150.656 100.598 150.658 100.439C150.66 100.279 150.621 100.122 150.544 99.9825C150.467 99.8428 150.356 99.7253 150.22 99.6414Z" fill="black"/>
<path opacity="0.08" d="M223.848 112.887L231.968 119.992L229.938 122.743C226.292 127.706 224.746 133.904 225.634 139.998C227.664 154.066 228.233 180.496 204.654 186.881L205.213 162.064L213.383 121.099L223.848 112.887Z" fill="black"/>
<path d="M130.143 119.363H152.382C158.969 119.363 164.044 119.606 169.81 122.794C183.685 130.457 190.262 147.976 169.515 201.436H123.333C123.333 201.436 86.275 120.581 130.143 119.363Z" fill="#5B97AA"/>
<path d="M132.518 152.584C129.828 152.28 127.346 150.988 125.554 148.959C123.761 146.931 122.785 144.309 122.815 141.602V58.2295H124.561V141.602C124.521 143.916 125.362 146.158 126.913 147.877C128.463 149.595 130.608 150.661 132.914 150.858C134.141 150.943 135.372 150.775 136.531 150.364C137.69 149.953 138.752 149.309 139.652 148.47C140.551 147.632 141.269 146.617 141.76 145.49C142.251 144.362 142.505 143.146 142.506 141.916V136.334C142.505 136.218 142.526 136.104 142.569 135.997C142.613 135.889 142.677 135.792 142.758 135.71C142.839 135.628 142.936 135.563 143.042 135.518C143.149 135.474 143.263 135.451 143.379 135.451V135.451C143.611 135.453 143.833 135.548 143.997 135.713C144.16 135.878 144.252 136.101 144.252 136.334V141.916C144.25 143.409 143.937 144.884 143.332 146.249C142.727 147.613 141.845 148.837 140.74 149.841C139.636 150.845 138.334 151.607 136.919 152.08C135.503 152.552 134.004 152.724 132.518 152.584V152.584Z" fill="#24285B"/>
<path d="M126.357 30.1749C126.357 28.7118 125.171 27.5257 123.708 27.5257C122.245 27.5257 121.059 28.7118 121.059 30.1749V45.8972C121.059 47.3603 122.245 48.5464 123.708 48.5464C125.171 48.5464 126.357 47.3603 126.357 45.8972V30.1749Z" fill="#FFD200"/>
<path opacity="0.08" d="M126.357 30.1749C126.357 28.7118 125.171 27.5257 123.708 27.5257C122.245 27.5257 121.059 28.7118 121.059 30.1749V45.8972C121.059 47.3603 122.245 48.5464 123.708 48.5464C125.171 48.5464 126.357 47.3603 126.357 45.8972V30.1749Z" fill="black"/>
<path d="M183.715 89.4813C183.715 89.4813 174.813 39.4418 124.845 39.4317C74.8766 39.4317 66.0258 89.4813 66.0258 89.4813L82.1237 87.4513C111.495 83.6655 141.237 83.7679 170.581 87.7558L183.715 89.4813Z" fill="#FFD200"/>
<path d="M118.603 128.985C118.231 127.614 118.386 126.153 119.038 124.89C119.69 123.628 120.791 122.655 122.125 122.164C122.514 122.001 122.933 121.917 123.356 121.919C123.778 121.92 124.196 122.007 124.585 122.174C124.973 122.34 125.324 122.584 125.616 122.889C125.909 123.194 126.137 123.555 126.286 123.951C128.6 128.254 126.489 133.563 122.683 134.182C121.936 134.277 121.18 134.092 120.562 133.663C119.943 133.234 119.506 132.591 119.334 131.858L118.603 128.985Z" fill="#F4A28C"/>
<path d="M123.333 201.436L131.321 260.306H141.085L141.643 228.618C141.715 224.72 142.84 220.914 144.899 217.603C146.957 214.292 149.872 211.599 153.336 209.81L169.505 201.436H123.333Z" fill="#24285B"/>
<path d="M169.515 201.436L166.399 260.275H156.259L147.52 209.789L169.515 201.436Z" fill="#24285B"/>
<path d="M157.325 129.655C157.503 128.273 158.005 126.952 158.79 125.8C159.575 124.649 160.622 123.699 161.844 123.029C163.066 122.359 164.43 121.988 165.823 121.945C167.216 121.902 168.599 122.19 169.86 122.783C174.854 125.189 180.335 129.99 183.055 139.541C185.005 146.388 187.405 153.098 190.241 159.628C190.617 160.474 191.238 161.186 192.025 161.673C192.812 162.16 193.727 162.398 194.651 162.357C195.576 162.315 196.466 161.995 197.206 161.44C197.945 160.884 198.5 160.118 198.798 159.242L208.714 129.919L217.748 131.787C217.748 131.787 221.351 172.711 198.899 182.628C178.488 191.651 153.265 161.12 157.325 129.655Z" fill="#5B97AA"/>
<path opacity="0.2" d="M157.325 129.655C157.503 128.273 158.005 126.952 158.79 125.8C159.575 124.649 160.622 123.699 161.844 123.029C163.066 122.359 164.43 121.988 165.823 121.945C167.216 121.902 168.599 122.19 169.86 122.783C174.854 125.189 180.335 129.99 183.055 139.541C185.005 146.388 187.405 153.098 190.241 159.628C190.617 160.474 191.238 161.186 192.025 161.673C192.812 162.16 193.727 162.398 194.651 162.357C195.576 162.315 196.466 161.995 197.206 161.44C197.945 160.884 198.5 160.118 198.798 159.242L208.714 129.919L217.748 131.787C217.748 131.787 221.351 172.711 198.899 182.628C178.488 191.651 153.265 161.12 157.325 129.655Z" fill="white"/>
<path d="M104.007 154.147L119.009 130.568L123.454 134.212L122.835 141.916C122.835 141.916 121.891 176.507 106.199 183.978L102.891 177.502C101.028 173.849 100.151 169.772 100.347 165.676C100.543 161.58 101.804 157.606 104.007 154.147V154.147Z" fill="#5B97AA"/>
<path opacity="0.2" d="M104.007 154.147L119.009 130.568L123.454 134.212L122.835 141.916C122.835 141.916 121.891 176.507 106.199 183.978L102.891 177.502C101.028 173.849 100.151 169.772 100.347 165.676C100.543 161.58 101.804 157.606 104.007 154.147V154.147Z" fill="white"/>
<path d="M210.42 130.284C210.42 130.284 211.15 127.31 215.738 124.032C220.326 120.753 225.452 125.351 217.768 131.797L210.42 130.284Z" fill="#F4A28C"/>
<path d="M227.582 113.802L218.545 107.669L208.321 122.737L217.358 128.869L227.582 113.802Z" fill="#FFD200"/>
<path opacity="0.08" d="M93.1262 152.635C93.1262 152.635 136.913 171.564 188.536 155.68C188.536 155.68 184.527 145.438 182.233 137.196C179.939 128.955 172.682 123.565 168.023 121.971C168.023 121.971 163.202 118.571 147.327 119.404L137.066 119.272C137.066 119.272 126.763 119.272 124.754 119.911C121.002 120.056 117.362 121.225 114.228 123.291C114.228 123.291 98.7696 129.513 93.1262 152.635Z" fill="black"/>
<path d="M296.157 68.4404H261.89V79.6054H296.157V68.4404Z" fill="#C9C9C9"/>
<path opacity="0.36" d="M296.157 90.0091H261.89V101.174H296.157V90.0091Z" fill="#C9C9C9"/>
<path opacity="0.36" d="M296.146 119.82H223.148V195.803H296.146V119.82Z" fill="#C9C9C9"/>
<path opacity="0.08" d="M315.188 157.496H285.905V220.122H315.188V157.496Z" fill="black"/>
<path d="M248.228 83.5131C247.719 83.5199 247.215 83.6125 246.736 83.7871C246.405 82.3958 245.651 81.1416 244.576 80.1979C243.501 79.2542 242.16 78.6677 240.738 78.5193C240.843 77.9912 240.898 77.4542 240.9 76.9156C240.939 75.7786 240.75 74.6453 240.342 73.5833C239.934 72.5213 239.316 71.5523 238.526 70.734C237.735 69.9158 236.788 69.265 235.741 68.8206C234.694 68.3761 233.568 68.1471 232.43 68.1471C231.292 68.1471 230.166 68.3761 229.119 68.8206C228.072 69.265 227.125 69.9158 226.334 70.734C225.544 71.5523 224.926 72.5213 224.518 73.5833C224.11 74.6453 223.92 75.7786 223.96 76.9156C223.964 77.4435 224.015 77.97 224.112 78.4888H223.96C222.129 78.4888 220.374 79.216 219.079 80.5104C217.785 81.8048 217.058 83.5603 217.058 85.3909C217.058 87.2214 217.785 88.9769 219.079 90.2713C220.374 91.5657 222.129 92.2929 223.96 92.2929H248.228C249.391 92.2929 250.507 91.8309 251.329 91.0086C252.151 90.1863 252.613 89.071 252.613 87.9081C252.613 86.7451 252.151 85.6298 251.329 84.8075C250.507 83.9852 249.391 83.5233 248.228 83.5233V83.5131Z" fill="#C9C9C9"/>
<path d="M231.44 92.2827L227.715 99.5501L233.643 99.5196L231.278 107.061L239.56 96.0382L233.643 95.9976L236.85 92.0391L231.44 92.2827Z" fill="#C9C9C9"/>
<path d="M352.317 168.225H275.177V230.851H352.317V168.225Z" fill="#F2F2F2"/>
<path d="M312.478 183.694L292.016 215.382H332.95L312.478 183.694Z" fill="#C9C9C9"/>
<path d="M314.254 193.387H310.702V205.699H314.254V193.387Z" fill="#F2F2F2"/>
<path d="M312.671 211.434C313.758 211.434 314.64 210.552 314.64 209.464C314.64 208.377 313.758 207.495 312.671 207.495C311.583 207.495 310.702 208.377 310.702 209.464C310.702 210.552 311.583 211.434 312.671 211.434Z" fill="#F2F2F2"/>
<path opacity="0.08" d="M300.552 174.701H283.175V180.923H300.552V174.701Z" fill="black"/>
</svg>
